<?xml version="1.0" standalone="no"?><!DOCTYPE svg PUBLIC "-//W3C//DTD SVG 1.1//EN" "http://www.w3.org/Graphics/SVG/1.1/DTD/svg11.dtd"><svg t="1537263581952" class="icon" style="" viewBox="0 0 1024 1024" version="1.1" xmlns="http://www.w3.org/2000/svg" p-id="3513" xmlns:xlink="http://www.w3.org/1999/xlink" width="100" height="100"><defs><style type="text/css"></style></defs><path d="M1016.149333 851.114667a47.616 47.616 0 0 1-46.933333 47.445333H53.930667a47.445333 47.445333 0 0 1-47.957334-47.445333 48.64 48.64 0 0 1 7.509334-25.770667L470.698667 82.261333a47.274667 47.274667 0 0 1 39.424-21.674666 46.08 46.08 0 0 1 40.277333 23.210666L1008.64 826.709333a39.936 39.936 0 0 1 8.021333 24.405334z m-442.026666-521.898667a63.146667 63.146667 0 1 0-126.122667 0V566.613333a63.146667 63.146667 0 1 0 126.122667 0zM512 677.205333a63.146667 63.146667 0 1 0 62.976 63.146667 63.146667 63.146667 0 0 0-62.976-63.146667z m0 0" p-id="3514" fill="#bfbfbf"></path></svg>