<?xml version="1.0" standalone="no"?><!DOCTYPE svg PUBLIC "-//W3C//DTD SVG 1.1//EN" "http://www.w3.org/Graphics/SVG/1.1/DTD/svg11.dtd"><svg t="1537170582369" class="icon" style="" viewBox="0 0 1024 1024" version="1.1" xmlns="http://www.w3.org/2000/svg" p-id="1030" xmlns:xlink="http://www.w3.org/1999/xlink" width="50" height="50"><defs><style type="text/css"></style></defs><path d="M510.86336 379.63776c-103.69024 0-188.04736 84.3776-188.0576 188.09856 0 103.70048 84.3776 188.06784 188.0576 188.06784 103.68 0 188.04736-84.3776 188.04736-188.06784 0-103.7312-84.34688-188.09856-188.04736-188.09856z" fill="#cdcdcd" p-id="1031"></path><path d="M900.48512 203.14112H792.20736c-2.7136-6.23616-14.04928-32.28672-19.42528-43.53024C756.77696 126.208 746.99776 112.64 714.19904 112.64H310.45632c-32.13312 0-46.1312 13.06624-65.10592 60.84608-4.37248 10.98752-10.88512 25.30304-12.86144 29.67552H121.2416C60.04736 203.1616 10.24 252.90752 10.24 314.05056v506.9312C10.24 882.1248 60.02688 931.84 121.2416 931.84h779.24352c61.19424 0 111.0016-49.73568 111.0016-110.85824V314.05056c-0.01024-61.184-49.79712-110.90944-111.0016-110.90944zM510.86336 795.27936c-125.47072 0-227.55328-102.08256-227.55328-227.55328S385.3824 340.1728 510.86336 340.1728c125.47072 0 227.55328 102.08256 227.55328 227.55328-0.01024 125.47072-102.07232 227.55328-227.55328 227.55328z m344.34048-414.42304h-50.88256a20.3776 20.3776 0 0 1-20.39808-20.36736c0-11.22304 9.1648-20.34688 20.39808-20.34688h50.88256c11.24352 0 20.3776 9.15456 20.3776 20.34688a20.3776 20.3776 0 0 1-20.3776 20.36736z" fill="#cdcdcd" p-id="1032"></path></svg>