<?xml version="1.0" standalone="no"?><!DOCTYPE svg PUBLIC "-//W3C//DTD SVG 1.1//EN" "http://www.w3.org/Graphics/SVG/1.1/DTD/svg11.dtd"><svg t="1537346001383" class="icon" style="" viewBox="0 0 1026 1024" version="1.1" xmlns="http://www.w3.org/2000/svg" p-id="1852" xmlns:xlink="http://www.w3.org/1999/xlink" width="48.09375" height="48"><defs><style type="text/css"></style></defs><path d="M1016.2 460.9c-12.8-13.1-35.4-13.2-48.5-0.5l-22.5 22.1C933.3 229.4 728 32.3 474.1 32.3 213.8 32.3 2 244.5 2 505.3s211.8 473 472.1 473c138.7 0 270-61.5 359.7-168.2 4-3.1 7.2-6.7 9.7-10.9 0.3-0.4 0.7-0.8 1-1.2l2.3-3.6-0.8-0.4c1.5-4.1 2.3-8 2.3-12 0-19.7-16-35.7-35.6-35.7-11.8 0-22.9 6.3-29.3 16.5-76.9 92.5-189.6 145.6-309.3 145.6-221.8 0-402.3-180.8-402.3-403.1 0-222.2 180.5-403.1 402.3-403.1 220.4 0 399.9 178.4 402.3 398.6l-40-40.2c-12.9-13-35.5-13.1-48.4-0.1-13.5 13.4-13.5 35.2-0.1 48.6l84.5 84.9c6.4 6.5 15.1 10.1 24.2 10.1h0.4l0.9 0.3c1.9 0.5 4.1 1.1 6.4 1.1 9 0 17.5-3.5 24-9.8l87.4-86.2c6.5-6.4 10.2-15.1 10.3-24.3 0.1-9.2-3.4-17.8-9.8-24.3zM700.3 627.4v-0.1l0.1-268.4c0-32.5-26.4-59-58.9-59H285.1c-32.4 0-58.8 26.5-58.8 59v307.4c0 32.5 26.4 59 58.8 59h356.4c32.4 0 58.9-26.5 58.9-59v-37.2l-0.1-1.7z m-52.1-266.1V664c0 5-4.1 9.2-9.1 9.2H287.4c-5 0-9.1-4.1-9.1-9.2V361.3c0-5.1 4.1-9.2 9.1-9.2H639c5.1 0 9.2 4.1 9.2 9.2z m-49.6 74.9c-7.4 0-14.3 2.8-19.4 8l-95.3 106.2-63.3-45c-5-4.7-11.5-7.2-18.5-7.2-9 0-15.9 2.9-21.2 8.3l-73.8 98.9c-9.5 9.4-9.5 26.7 1 37.4 5.2 5.2 12 8 19.2 8 7.4 0 14.2-2.9 19.6-8.4l59.9-80.2 62.1 44.1c5 4.7 11.7 7.2 19.2 7.2 7.4 0 14.2-2.9 19.4-8.1L618 482.3c4.7-4.7 7.6-11.5 7.6-18.9 0-7.3-2.8-14.2-8.1-19.3-4.6-5-11.6-7.9-18.9-7.9zM389 491.1c29.1 0 52.7-23.7 52.7-52.8 0-29.1-23.7-52.8-52.7-52.8-29.1 0-52.7 23.7-52.7 52.8 0 29.1 23.6 52.8 52.7 52.8z" p-id="1853" fill="#1296db"></path></svg>